<svg xmlns="http://www.w3.org/2000/svg" viewBox="0 0 500 400" fill="none" role="img" aria-label="GMAT Focus Edition advantages">
  <ellipse cx="250" cy="210" rx="210" ry="150" fill="#DBEAFE"/>
  <rect x="95" y="70" width="310" height="210" rx="18" fill="#fff" stroke="#E2E8F0" stroke-width="2"/>
  <rect x="120" y="95" width="120" height="14" rx="7" fill="#FED7AA"/>
  <rect x="120" y="120" width="200" height="10" rx="5" fill="#E2E8F0"/>
  <rect x="120" y="140" width="170" height="10" rx="5" fill="#E2E8F0"/>
  <path d="M130 250 L170 210 L210 225 L260 175 L310 190 L360 140" stroke="#F97316" stroke-width="5" stroke-linecap="round" stroke-linejoin="round"/>
  <circle cx="170" cy="210" r="7" fill="#F97316"/>
  <circle cx="210" cy="225" r="7" fill="#F97316"/>
  <circle cx="260" cy="175" r="7" fill="#F97316"/>
  <circle cx="310" cy="190" r="7" fill="#F97316"/>
  <circle cx="360" cy="140" r="7" fill="#F97316"/>
  <rect x="300" y="95" width="80" height="80" rx="12" fill="#0F172A"/>
  <text x="340" y="145" text-anchor="middle" fill="#F97316" font-family="system-ui,sans-serif" font-size="22" font-weight="700">GMAT</text>
  <circle cx="380" cy="250" r="34" fill="#F97316"/>
  <path d="M368 250 L376 258 L394 238" stroke="#fff" stroke-width="5" stroke-linecap="round" stroke-linejoin="round"/>
  <rect x="70" y="285" width="90" height="36" rx="10" fill="#fff" stroke="#BFDBFE" stroke-width="2"/>
  <text x="115" y="308" text-anchor="middle" fill="#0F172A" font-family="system-ui,sans-serif" font-size="11" font-weight="600">Shorter</text>
  <rect x="175" y="285" width="90" height="36" rx="10" fill="#fff" stroke="#BFDBFE" stroke-width="2"/>
  <text x="220" y="308" text-anchor="middle" fill="#0F172A" font-family="system-ui,sans-serif" font-size="11" font-weight="600">Focused</text>
  <rect x="280" y="285" width="90" height="36" rx="10" fill="#fff" stroke="#BFDBFE" stroke-width="2"/>
  <text x="325" y="308" text-anchor="middle" fill="#0F172A" font-family="system-ui,sans-serif" font-size="11" font-weight="600">Modern</text>
</svg>
